<?xml version="1.0" encoding="UTF-8"?>
<svg xmlns="http://www.w3.org/2000/svg" xmlns:xlink="http://www.w3.org/1999/xlink" viewBox="0 0 500 500" width="500px" height="500px">
<g id="surface14833124">
<path style=" stroke:none;fill-rule:nonzero;fill:rgb(94.509804%,76.862746%,5.882353%);fill-opacity:1;" d="M 385 60 C 382.238281 60 380 62.238281 380 65 C 380 67.761719 382.238281 70 385 70 C 387.761719 70 390 67.761719 390 65 C 390 62.238281 387.761719 60 385 60 Z M 385 60 "/>
<path style=" stroke:none;fill-rule:nonzero;fill:rgb(94.509804%,76.862746%,5.882353%);fill-opacity:1;" d="M 250 65 C 147.828125 65 65 147.828125 65 250 C 65 352.171875 147.828125 435 250 435 C 352.171875 435 435 352.171875 435 250 C 435 147.828125 352.171875 65 250 65 Z M 250 65 "/>
<path style=" stroke:none;fill-rule:nonzero;fill:rgb(94.509804%,76.862746%,5.882353%);fill-opacity:1;" d="M 415 55 C 403.953125 55 395 63.953125 395 75 C 395 86.046875 403.953125 95 415 95 C 426.046875 95 435 86.046875 435 75 C 435 63.953125 426.046875 55 415 55 Z M 415 55 "/>
<path style=" stroke:none;fill-rule:nonzero;fill:rgb(94.509804%,76.862746%,5.882353%);fill-opacity:1;" d="M 435 110 C 429.476562 110 425 114.476562 425 120 C 425 125.523438 429.476562 130 435 130 C 440.523438 130 445 125.523438 445 120 C 445 114.476562 440.523438 110 435 110 Z M 435 110 "/>
<path style=" stroke:none;fill-rule:nonzero;fill:rgb(98.431373%,80.392158%,34.901962%);fill-opacity:1;" d="M 405 370 C 399.476562 370 395 374.476562 395 380 C 395 385.523438 399.476562 390 405 390 C 410.523438 390 415 385.523438 415 380 C 415 374.476562 410.523438 370 405 370 Z M 75 295 C 63.953125 295 55 303.953125 55 315 C 55 326.046875 63.953125 335 75 335 C 86.046875 335 95 326.046875 95 315 C 95 303.953125 86.046875 295 75 295 Z M 75 295 "/>
<path style=" stroke:none;fill-rule:nonzero;fill:rgb(94.509804%,76.862746%,5.882353%);fill-opacity:1;" d="M 125 425 C 119.476562 425 115 429.476562 115 435 C 115 440.523438 119.476562 445 125 445 C 130.523438 445 135 440.523438 135 435 C 135 429.476562 130.523438 425 125 425 Z M 125 425 "/>
<path style=" stroke:none;fill-rule:nonzero;fill:rgb(100%,100%,100%);fill-opacity:1;" d="M 92.5 245 C 85.597656 245 80 250.597656 80 257.5 C 80 264.402344 85.597656 270 92.5 270 C 99.402344 270 105 264.402344 105 257.5 C 105 250.597656 99.402344 245 92.5 245 Z M 397.5 160 C 393.359375 160 390 163.359375 390 167.5 C 390 171.640625 393.359375 175 397.5 175 C 401.640625 175 405 171.640625 405 167.5 C 405 163.359375 401.640625 160 397.5 160 Z M 397.5 160 "/>
<path style=" stroke:none;fill-rule:nonzero;fill:rgb(20.392157%,59.607846%,85.882354%);fill-opacity:1;" d="M 250 128.125 C 183.035156 128.125 128.75 182.410156 128.75 249.375 C 128.75 316.339844 183.035156 370.625 250 370.625 C 316.964844 370.625 371.25 316.339844 371.25 249.375 C 371.25 182.410156 316.964844 128.125 250 128.125 Z M 250 128.125 "/>
<path style=" stroke:none;fill-rule:nonzero;fill:rgb(27.843139%,16.862746%,16.078432%);fill-opacity:1;" d="M 250 374.125 C 181.214844 374.125 125.25 318.164062 125.25 249.375 C 125.25 180.585938 181.214844 124.625 250 124.625 C 318.785156 124.625 374.75 180.585938 374.75 249.375 C 374.75 318.164062 318.785156 374.125 250 374.125 Z M 250 131.625 C 185.074219 131.625 132.25 184.445312 132.25 249.375 C 132.25 314.304688 185.074219 367.125 250 367.125 C 314.925781 367.125 367.75 314.304688 367.75 249.375 C 367.75 184.445312 314.925781 131.625 250 131.625 Z M 250 131.625 "/>
<path style=" stroke:none;fill-rule:nonzero;fill:rgb(94.509804%,76.862746%,5.882353%);fill-opacity:1;" d="M 250 145.835938 C 193.390625 145.835938 147.5 191.726562 147.5 248.335938 C 147.5 304.945312 193.390625 350.835938 250 350.835938 C 306.609375 350.835938 352.5 304.945312 352.5 248.335938 C 352.5 191.726562 306.609375 145.835938 250 145.835938 Z M 250 145.835938 "/>
<path style=" stroke:none;fill-rule:nonzero;fill:rgb(27.843139%,16.862746%,16.078432%);fill-opacity:1;" d="M 347.121094 223.125 C 346.050781 223.125 345.058594 222.429688 344.730469 221.355469 C 344.289062 219.921875 343.816406 218.5 343.308594 217.089844 C 341.351562 211.621094 338.878906 206.296875 335.960938 201.246094 C 335.265625 200.054688 335.675781 198.519531 336.871094 197.828125 C 338.066406 197.125 339.59375 197.546875 340.285156 198.746094 C 343.355469 204.050781 345.953125 209.65625 348.015625 215.398438 C 348.546875 216.886719 349.046875 218.375 349.503906 219.886719 C 349.910156 221.203125 349.171875 222.605469 347.84375 223.011719 C 347.605469 223.089844 347.359375 223.125 347.121094 223.125 Z M 347.121094 223.125 "/>
<path style=" stroke:none;fill-rule:nonzero;fill:rgb(27.843139%,16.862746%,16.078432%);fill-opacity:1;" d="M 250 353.75 C 192.445312 353.75 145.625 307.066406 145.625 249.683594 C 145.625 192.304688 192.445312 145.625 250 145.625 C 279.875 145.625 308.371094 158.425781 328.179688 180.738281 C 329.675781 182.425781 331.121094 184.164062 332.503906 185.945312 C 333.351562 187.035156 333.15625 188.601562 332.070312 189.449219 C 330.980469 190.304688 329.410156 190.105469 328.558594 189.011719 C 327.238281 187.316406 325.859375 185.664062 324.441406 184.058594 C 305.578125 162.808594 278.445312 150.621094 250 150.621094 C 195.203125 150.621094 150.625 195.058594 150.625 249.683594 C 150.625 304.308594 195.203125 348.75 250 348.75 C 304.796875 348.75 349.375 304.308594 349.375 249.683594 C 349.375 244.710938 349 239.703125 348.265625 234.820312 C 348.058594 233.460938 349 232.183594 350.363281 231.980469 C 351.753906 231.753906 353.003906 232.714844 353.210938 234.078125 C 353.980469 239.203125 354.375 244.460938 354.375 249.683594 C 354.375 307.066406 307.554688 353.75 250 353.75 Z M 250 353.75 "/>
<path style=" stroke:none;fill-rule:nonzero;fill:rgb(20.392157%,59.607846%,85.882354%);fill-opacity:1;" d="M 307.480469 210.441406 C 309.304688 202.085938 308.511719 191.726562 305.050781 181.351562 C 286.941406 181.351562 273.355469 194.929688 273.355469 194.929688 C 273.355469 194.929688 273.433594 195.019531 273.453125 195.046875 C 273.136719 195.039062 272.824219 195 272.5 195 L 227.5 195 C 227.285156 195 227.074219 195.03125 226.859375 195.03125 C 226.875 195.011719 226.945312 194.929688 226.945312 194.929688 C 226.945312 194.929688 213.359375 181.351562 195.25 181.351562 C 191.828125 191.613281 191 201.871094 192.75 210.183594 C 184.863281 218.660156 180 230 180 242.5 C 180 268.734375 201.265625 290 227.5 290 L 232.863281 290 C 226.34375 293.546875 221.636719 299.894531 220.398438 307.488281 C 211.800781 308.648438 200.503906 308.390625 195.261719 300.519531 C 186.203125 286.933594 181.675781 286.933594 177.148438 286.933594 C 172.625 286.933594 172.621094 291.464844 177.148438 295.988281 C 181.679688 300.519531 181.679688 300.519531 186.203125 309.574219 C 190.066406 317.289062 200.265625 326.066406 220.003906 322.890625 L 220.003906 340.503906 C 220.003906 342.738281 220.398438 344.859375 220.960938 346.914062 C 233.085938 349.800781 253.46875 352.21875 279.285156 346.160156 C 279.714844 344.339844 280 342.464844 280 340.511719 L 280 311.429688 C 280 302.140625 274.765625 294.148438 267.136719 290 L 272.5 290 C 298.734375 290 320 268.734375 320 242.5 C 320 230.125 315.230469 218.894531 307.480469 210.441406 Z M 307.480469 210.441406 "/>
<path style=" stroke:none;fill-rule:nonzero;fill:rgb(27.843139%,16.862746%,16.078432%);fill-opacity:1;" d="M 247.660156 352.429688 C 236.511719 352.429688 227.285156 350.996094 220.375 349.351562 C 219.484375 349.140625 218.78125 348.453125 218.539062 347.574219 C 217.828125 344.964844 217.5 342.714844 217.5 340.511719 L 217.5 325.75 C 194.683594 328.320312 186.105469 314.980469 183.964844 310.695312 C 179.613281 302 179.613281 302 175.378906 297.761719 C 171.875 294.253906 170.484375 290.46875 171.65625 287.644531 C 172.5 285.605469 174.5 284.433594 177.144531 284.433594 C 183.230469 284.433594 188.238281 285.488281 197.335938 299.128906 C 201.53125 305.421875 210.714844 306.023438 218.300781 305.21875 C 219.449219 300.328125 221.921875 295.945312 225.414062 292.449219 C 198.808594 291.359375 177.5 269.375 177.5 242.5 C 177.5 230.289062 181.953125 218.601562 190.066406 209.433594 C 188.535156 200.824219 189.523438 190.628906 192.886719 180.558594 C 193.226562 179.539062 194.179688 178.851562 195.253906 178.851562 C 212.039062 178.851562 224.910156 189.648438 228.015625 192.5 L 272.285156 192.5 C 275.390625 189.648438 288.261719 178.851562 305.046875 178.851562 C 306.121094 178.851562 307.074219 179.539062 307.414062 180.558594 C 310.808594 190.746094 311.773438 201.039062 310.171875 209.710938 C 318.125 218.839844 322.496094 230.441406 322.496094 242.503906 C 322.496094 269.378906 301.179688 291.371094 274.570312 292.460938 C 279.574219 297.445312 282.496094 304.230469 282.496094 311.429688 L 282.496094 340.511719 C 282.496094 342.46875 282.234375 344.511719 281.703125 346.738281 C 281.488281 347.664062 280.765625 348.378906 279.84375 348.59375 C 267.910156 351.398438 257.09375 352.429688 247.660156 352.429688 Z M 223.011719 344.824219 C 235.070312 347.511719 253.773438 349.324219 277.160156 344.085938 C 277.386719 342.820312 277.5 341.640625 277.5 340.511719 L 277.5 311.429688 C 277.5 303.445312 273.070312 296.078125 265.941406 292.199219 C 264.933594 291.65625 264.429688 290.496094 264.710938 289.386719 C 264.988281 288.273438 265.988281 287.5 267.128906 287.5 L 272.5 287.5 C 297.308594 287.5 317.5 267.316406 317.5 242.5 C 317.5 231.265625 313.285156 220.480469 305.636719 212.128906 C 305.085938 211.53125 304.863281 210.699219 305.035156 209.910156 C 306.691406 202.324219 306.046875 193.148438 303.234375 183.898438 C 288.886719 184.664062 277.746094 194.269531 275.523438 196.320312 C 275.070312 197.074219 274.300781 197.550781 273.378906 197.550781 C 273.34375 197.550781 272.898438 197.519531 272.863281 197.519531 L 227.5 197.5 C 226.738281 197.5 225.839844 197.164062 225.289062 196.59375 L 225.183594 196.699219 C 225.058594 196.578125 212.996094 184.75 197.070312 183.894531 C 194.285156 193.050781 193.621094 202.140625 195.203125 209.664062 C 195.375 210.460938 195.140625 211.289062 194.585938 211.886719 C 186.789062 220.261719 182.5 231.136719 182.5 242.5 C 182.5 267.316406 202.691406 287.5 227.5 287.5 L 232.863281 287.5 C 234.011719 287.5 235.003906 288.273438 235.285156 289.386719 C 235.570312 290.496094 235.066406 291.648438 234.054688 292.199219 C 228.03125 295.46875 223.949219 301.195312 222.863281 307.894531 C 222.683594 308.984375 221.824219 309.824219 220.730469 309.96875 C 207.410156 311.761719 197.890625 308.980469 193.175781 301.914062 C 184.859375 289.445312 181.113281 289.445312 177.144531 289.445312 C 176.460938 289.445312 176.246094 289.605469 176.238281 289.605469 C 176.113281 289.925781 176.453125 291.78125 178.910156 294.234375 C 183.726562 299.050781 183.898438 299.398438 188.433594 308.46875 C 190.28125 312.148438 197.988281 323.933594 219.601562 320.429688 C 220.335938 320.324219 221.058594 320.523438 221.621094 320.996094 C 222.175781 321.476562 222.5 322.164062 222.5 322.898438 L 222.5 340.515625 C 222.5 341.859375 222.664062 343.253906 223.011719 344.824219 Z M 223.011719 344.824219 "/>
<path style=" stroke:none;fill-rule:nonzero;fill:rgb(20.392157%,59.607846%,85.882354%);fill-opacity:1;" d="M 302.183594 256.808594 C 297.683594 266.78125 287.804688 275.070312 270.414062 276.460938 "/>
<path style=" stroke:none;fill-rule:nonzero;fill:rgb(27.843139%,16.862746%,16.078432%);fill-opacity:1;" d="M 270.414062 277.710938 C 269.769531 277.710938 269.226562 277.210938 269.171875 276.558594 C 269.113281 275.871094 269.625 275.269531 270.316406 275.214844 C 289.339844 273.691406 297.523438 264.078125 301.046875 256.296875 C 301.335938 255.660156 302.070312 255.378906 302.699219 255.671875 C 303.324219 255.953125 303.609375 256.691406 303.324219 257.320312 C 297.960938 269.203125 286.308594 276.441406 270.515625 277.703125 C 270.484375 277.710938 270.449219 277.710938 270.414062 277.710938 Z M 270.414062 277.710938 "/>
<path style=" stroke:none;fill-rule:nonzero;fill:rgb(20.392157%,59.607846%,85.882354%);fill-opacity:1;" d="M 304.796875 237.050781 C 305.351562 240.816406 305.339844 244.808594 304.644531 248.761719 "/>
<path style=" stroke:none;fill-rule:nonzero;fill:rgb(27.843139%,16.862746%,16.078432%);fill-opacity:1;" d="M 304.648438 250.011719 C 304.574219 250.011719 304.503906 250.003906 304.429688 249.988281 C 303.75 249.875 303.296875 249.226562 303.414062 248.546875 C 304.058594 244.875 304.109375 240.960938 303.558594 237.230469 C 303.453125 236.550781 303.929688 235.910156 304.609375 235.816406 C 305.296875 235.714844 305.929688 236.179688 306.03125 236.871094 C 306.628906 240.914062 306.574219 244.988281 305.875 248.976562 C 305.773438 249.585938 305.246094 250.011719 304.648438 250.011719 Z M 304.648438 250.011719 "/>
<path style=" stroke:none;fill-rule:nonzero;fill:rgb(20.392157%,59.607846%,85.882354%);fill-opacity:1;" d="M 295.414062 219.375 C 298.578125 221.628906 301.144531 225.269531 302.855469 229.648438 "/>
<path style=" stroke:none;fill-rule:nonzero;fill:rgb(27.843139%,16.862746%,16.078432%);fill-opacity:1;" d="M 302.855469 230.90625 C 302.355469 230.90625 301.886719 230.601562 301.691406 230.109375 C 300.019531 225.828125 297.601562 222.46875 294.691406 220.398438 C 294.128906 220 293.996094 219.21875 294.394531 218.65625 C 294.800781 218.089844 295.574219 217.964844 296.140625 218.355469 C 299.449219 220.714844 302.175781 224.464844 304.019531 229.199219 C 304.269531 229.84375 303.949219 230.566406 303.308594 230.820312 C 303.160156 230.875 303.011719 230.90625 302.855469 230.90625 Z M 302.855469 230.90625 "/>
<path style=" stroke:none;fill-rule:nonzero;fill:rgb(99.215686%,98.823529%,93.725491%);fill-opacity:1;" d="M 468.429688 393.429688 C 468.429688 434.851562 434.851562 468.429688 393.429688 468.429688 C 352.007812 468.429688 318.429688 434.851562 318.429688 393.429688 C 318.429688 352.007812 352.007812 318.429688 393.429688 318.429688 C 434.851562 318.429688 468.429688 352.007812 468.429688 393.429688 Z M 468.429688 393.429688 "/>
<path style=" stroke:none;fill-rule:nonzero;fill:rgb(27.843139%,16.862746%,16.078432%);fill-opacity:1;" d="M 393.429688 322.929688 C 432.304688 322.929688 463.929688 354.554688 463.929688 393.429688 C 463.929688 432.304688 432.304688 463.929688 393.429688 463.929688 C 354.554688 463.929688 322.929688 432.304688 322.929688 393.429688 C 322.929688 354.554688 354.554688 322.929688 393.429688 322.929688 M 393.429688 315.929688 C 350.628906 315.929688 315.929688 350.628906 315.929688 393.429688 C 315.929688 436.230469 350.628906 470.929688 393.429688 470.929688 C 436.230469 470.929688 470.929688 436.230469 470.929688 393.429688 C 470.929688 350.628906 436.230469 315.929688 393.429688 315.929688 Z M 393.429688 315.929688 "/>
<path style=" stroke:none;fill-rule:nonzero;fill:rgb(47.058824%,62.7451%,81.176472%);fill-opacity:1;" d="M 454.675781 393.429688 C 454.675781 427.257812 427.253906 454.679688 393.425781 454.679688 C 359.597656 454.679688 332.175781 427.257812 332.175781 393.429688 C 332.175781 359.601562 359.597656 332.179688 393.425781 332.179688 C 427.253906 332.179688 454.675781 359.601562 454.675781 393.429688 Z M 454.675781 393.429688 "/>
<path style=" stroke:none;fill-rule:nonzero;fill:rgb(62.7451%,76.862746%,91.37255%);fill-opacity:1;" d="M 393.429688 332.179688 C 359.65625 332.179688 332.179688 359.65625 332.179688 393.429688 C 332.179688 394.195312 332.265625 394.933594 332.296875 395.695312 C 338.179688 367.296875 363.28125 345.929688 393.429688 345.929688 C 423.585938 345.929688 448.691406 367.304688 454.566406 395.71875 C 454.59375 394.957031 454.679688 394.207031 454.679688 393.429688 C 454.679688 359.65625 427.199219 332.179688 393.429688 332.179688 Z M 393.429688 332.179688 "/>
<path style=" stroke:none;fill-rule:nonzero;fill:rgb(27.843139%,16.862746%,16.078432%);fill-opacity:1;" d="M 393.425781 333.429688 C 426.511719 333.429688 453.429688 360.34375 453.429688 393.429688 C 453.429688 426.515625 426.515625 453.429688 393.425781 453.429688 C 360.34375 453.429688 333.429688 426.515625 333.429688 393.429688 C 333.429688 360.34375 360.34375 333.429688 393.425781 333.429688 M 393.425781 330.929688 C 358.964844 330.929688 330.929688 358.96875 330.929688 393.429688 C 330.929688 427.890625 358.964844 455.929688 393.425781 455.929688 C 427.894531 455.929688 455.929688 427.890625 455.929688 393.429688 C 455.929688 358.96875 427.894531 330.929688 393.425781 330.929688 Z M 393.425781 330.929688 "/>
<path style=" stroke:none;fill-rule:nonzero;fill:rgb(27.843139%,16.862746%,16.078432%);fill-opacity:1;" d="M 421.808594 365.050781 C 416.496094 359.730469 407.230469 359.734375 401.921875 365.050781 L 395.050781 371.921875 C 392.390625 374.574219 390.929688 378.109375 390.929688 381.863281 C 390.929688 384.769531 391.824219 387.53125 393.457031 389.871094 L 389.851562 393.476562 C 384.433594 389.824219 376.628906 390.339844 371.914062 395.054688 L 365.046875 401.925781 C 362.390625 404.574219 360.929688 408.109375 360.929688 411.863281 C 360.929688 415.621094 362.390625 419.15625 365.050781 421.808594 C 367.707031 424.46875 371.238281 425.929688 374.996094 425.929688 C 378.75 425.929688 382.285156 424.46875 384.941406 421.808594 L 391.808594 414.941406 C 394.46875 412.285156 395.929688 408.75 395.929688 404.996094 C 395.929688 402.089844 395.035156 399.332031 393.40625 396.988281 L 396.988281 393.40625 C 399.332031 395.035156 402.089844 395.929688 404.996094 395.929688 C 408.75 395.929688 412.285156 394.46875 414.941406 391.808594 L 421.808594 384.941406 C 424.46875 382.285156 425.929688 378.75 425.929688 374.996094 C 425.929688 371.238281 424.46875 367.707031 421.808594 365.050781 Z M 390.929688 404.996094 C 390.929688 407.414062 389.988281 409.691406 388.273438 411.40625 L 381.40625 418.273438 C 377.980469 421.707031 372.019531 421.710938 368.585938 418.273438 C 366.871094 416.558594 365.929688 414.285156 365.929688 411.863281 C 365.929688 409.445312 366.871094 407.171875 368.585938 405.457031 L 375.457031 398.585938 C 377.171875 396.871094 379.445312 395.929688 381.863281 395.929688 C 383.425781 395.929688 384.898438 396.359375 386.230469 397.09375 L 382.664062 400.660156 C 381.691406 401.636719 381.691406 403.21875 382.664062 404.195312 C 383.15625 404.683594 383.796875 404.925781 384.433594 404.925781 C 385.074219 404.925781 385.714844 404.679688 386.207031 404.195312 L 389.769531 400.628906 C 390.5 401.960938 390.929688 403.433594 390.929688 404.996094 Z M 418.273438 381.40625 L 411.40625 388.273438 C 408.589844 391.09375 404.082031 391.554688 400.648438 389.746094 L 404.195312 386.199219 C 405.171875 385.226562 405.171875 383.640625 404.195312 382.664062 C 403.21875 381.691406 401.636719 381.691406 400.660156 382.664062 L 397.09375 386.230469 C 396.359375 384.898438 395.929688 383.425781 395.929688 381.863281 C 395.929688 379.445312 396.871094 377.171875 398.585938 375.457031 L 405.457031 368.585938 C 407.171875 366.871094 409.445312 365.929688 411.863281 365.929688 C 414.285156 365.929688 416.558594 366.871094 418.273438 368.585938 C 419.988281 370.300781 420.929688 372.574219 420.929688 374.996094 C 420.929688 377.414062 419.988281 379.691406 418.273438 381.40625 Z M 418.273438 381.40625 "/>
</g>
</svg>
