<?xml version="1.0" encoding="UTF-8"?>
<svg xmlns="http://www.w3.org/2000/svg" xmlns:xlink="http://www.w3.org/1999/xlink" viewBox="0 0 50 50" width="50px" height="50px">
<g id="surface14833040">
<path style=" stroke:none;fill-rule:nonzero;fill:rgb(94.509804%,76.862746%,5.882353%);fill-opacity:1;" d="M 38.5 6 C 38.222656 6 38 6.222656 38 6.5 C 38 6.777344 38.222656 7 38.5 7 C 38.777344 7 39 6.777344 39 6.5 C 39 6.222656 38.777344 6 38.5 6 Z M 38.5 6 "/>
<path style=" stroke:none;fill-rule:nonzero;fill:rgb(94.509804%,76.862746%,5.882353%);fill-opacity:1;" d="M 25 6.5 C 14.78125 6.5 6.5 14.78125 6.5 25 C 6.5 35.21875 14.78125 43.5 25 43.5 C 35.21875 43.5 43.5 35.21875 43.5 25 C 43.5 14.78125 35.21875 6.5 25 6.5 Z M 25 6.5 "/>
<path style=" stroke:none;fill-rule:nonzero;fill:rgb(94.509804%,76.862746%,5.882353%);fill-opacity:1;" d="M 41.5 5.5 C 40.394531 5.5 39.5 6.394531 39.5 7.5 C 39.5 8.605469 40.394531 9.5 41.5 9.5 C 42.605469 9.5 43.5 8.605469 43.5 7.5 C 43.5 6.394531 42.605469 5.5 41.5 5.5 Z M 41.5 5.5 "/>
<path style=" stroke:none;fill-rule:nonzero;fill:rgb(94.509804%,76.862746%,5.882353%);fill-opacity:1;" d="M 43.5 11 C 42.949219 11 42.5 11.449219 42.5 12 C 42.5 12.550781 42.949219 13 43.5 13 C 44.050781 13 44.5 12.550781 44.5 12 C 44.5 11.449219 44.050781 11 43.5 11 Z M 43.5 11 "/>
<path style=" stroke:none;fill-rule:nonzero;fill:rgb(98.431373%,80.392158%,34.901962%);fill-opacity:1;" d="M 40.5 37 C 39.949219 37 39.5 37.449219 39.5 38 C 39.5 38.550781 39.949219 39 40.5 39 C 41.050781 39 41.5 38.550781 41.5 38 C 41.5 37.449219 41.050781 37 40.5 37 Z M 7.5 29.5 C 6.394531 29.5 5.5 30.394531 5.5 31.5 C 5.5 32.605469 6.394531 33.5 7.5 33.5 C 8.605469 33.5 9.5 32.605469 9.5 31.5 C 9.5 30.394531 8.605469 29.5 7.5 29.5 Z M 7.5 29.5 "/>
<path style=" stroke:none;fill-rule:nonzero;fill:rgb(94.509804%,76.862746%,5.882353%);fill-opacity:1;" d="M 12.5 42.5 C 11.949219 42.5 11.5 42.949219 11.5 43.5 C 11.5 44.050781 11.949219 44.5 12.5 44.5 C 13.050781 44.5 13.5 44.050781 13.5 43.5 C 13.5 42.949219 13.050781 42.5 12.5 42.5 Z M 12.5 42.5 "/>
<path style=" stroke:none;fill-rule:nonzero;fill:rgb(100%,100%,100%);fill-opacity:1;" d="M 9.25 24.5 C 8.558594 24.5 8 25.058594 8 25.75 C 8 26.441406 8.558594 27 9.25 27 C 9.941406 27 10.5 26.441406 10.5 25.75 C 10.5 25.058594 9.941406 24.5 9.25 24.5 Z M 39.75 16 C 39.335938 16 39 16.335938 39 16.75 C 39 17.164062 39.335938 17.5 39.75 17.5 C 40.164062 17.5 40.5 17.164062 40.5 16.75 C 40.5 16.335938 40.164062 16 39.75 16 Z M 39.75 16 "/>
<path style=" stroke:none;fill-rule:nonzero;fill:rgb(20.392157%,59.607846%,85.882354%);fill-opacity:1;" d="M 25 12.8125 C 18.304688 12.8125 12.875 18.242188 12.875 24.9375 C 12.875 31.632812 18.304688 37.0625 25 37.0625 C 31.695312 37.0625 37.125 31.632812 37.125 24.9375 C 37.125 18.242188 31.695312 12.8125 25 12.8125 Z M 25 12.8125 "/>
<path style=" stroke:none;fill-rule:nonzero;fill:rgb(27.843139%,16.862746%,16.078432%);fill-opacity:1;" d="M 25 37.414062 C 18.121094 37.414062 12.523438 31.816406 12.523438 24.9375 C 12.523438 18.058594 18.121094 12.460938 25 12.460938 C 31.878906 12.460938 37.476562 18.058594 37.476562 24.9375 C 37.476562 31.816406 31.878906 37.414062 25 37.414062 Z M 25 13.164062 C 18.507812 13.164062 13.226562 18.445312 13.226562 24.9375 C 13.226562 31.429688 18.507812 36.710938 25 36.710938 C 31.492188 36.710938 36.773438 31.429688 36.773438 24.9375 C 36.773438 18.445312 31.492188 13.164062 25 13.164062 Z M 25 13.164062 "/>
<path style=" stroke:none;fill-rule:nonzero;fill:rgb(94.509804%,76.862746%,5.882353%);fill-opacity:1;" d="M 25 14.582031 C 19.339844 14.582031 14.75 19.171875 14.75 24.832031 C 14.75 30.496094 19.339844 35.082031 25 35.082031 C 30.660156 35.082031 35.25 30.496094 35.25 24.832031 C 35.25 19.171875 30.660156 14.582031 25 14.582031 Z M 25 14.582031 "/>
<path style=" stroke:none;fill-rule:nonzero;fill:rgb(27.843139%,16.862746%,16.078432%);fill-opacity:1;" d="M 34.710938 22.3125 C 34.605469 22.3125 34.507812 22.242188 34.472656 22.136719 C 34.429688 21.992188 34.382812 21.851562 34.332031 21.710938 C 34.136719 21.160156 33.886719 20.628906 33.597656 20.125 C 33.527344 20.003906 33.566406 19.851562 33.6875 19.78125 C 33.804688 19.710938 33.960938 19.753906 34.027344 19.875 C 34.335938 20.40625 34.59375 20.964844 34.800781 21.539062 C 34.855469 21.6875 34.90625 21.835938 34.949219 21.988281 C 34.992188 22.121094 34.917969 22.261719 34.785156 22.300781 C 34.761719 22.308594 34.734375 22.3125 34.710938 22.3125 Z M 34.710938 22.3125 "/>
<path style=" stroke:none;fill-rule:nonzero;fill:rgb(27.843139%,16.862746%,16.078432%);fill-opacity:1;" d="M 25 35.375 C 19.246094 35.375 14.5625 30.707031 14.5625 24.96875 C 14.5625 19.230469 19.246094 14.5625 25 14.5625 C 27.988281 14.5625 30.835938 15.84375 32.816406 18.074219 C 32.96875 18.242188 33.113281 18.417969 33.25 18.59375 C 33.335938 18.703125 33.316406 18.859375 33.207031 18.945312 C 33.097656 19.03125 32.941406 19.011719 32.855469 18.902344 C 32.722656 18.730469 32.585938 18.566406 32.445312 18.40625 C 30.558594 16.28125 27.84375 15.0625 25 15.0625 C 19.519531 15.0625 15.0625 19.507812 15.0625 24.96875 C 15.0625 30.429688 19.519531 34.875 25 34.875 C 30.480469 34.875 34.9375 30.429688 34.9375 24.96875 C 34.9375 24.472656 34.898438 23.96875 34.828125 23.480469 C 34.804688 23.347656 34.898438 23.21875 35.035156 23.199219 C 35.175781 23.175781 35.300781 23.273438 35.320312 23.40625 C 35.398438 23.921875 35.4375 24.445312 35.4375 24.96875 C 35.4375 30.707031 30.753906 35.375 25 35.375 Z M 25 35.375 "/>
<path style=" stroke:none;fill-rule:nonzero;fill:rgb(20.392157%,59.607846%,85.882354%);fill-opacity:1;" d="M 30.746094 21.042969 C 30.929688 20.207031 30.851562 19.171875 30.503906 18.136719 C 28.695312 18.136719 27.335938 19.492188 27.335938 19.492188 C 27.335938 19.492188 27.34375 19.503906 27.34375 19.503906 C 27.3125 19.503906 27.28125 19.5 27.25 19.5 L 22.75 19.5 C 22.726562 19.5 22.707031 19.503906 22.6875 19.503906 C 22.6875 19.5 22.695312 19.492188 22.695312 19.492188 C 22.695312 19.492188 21.335938 18.136719 19.523438 18.136719 C 19.183594 19.160156 19.101562 20.1875 19.273438 21.019531 C 18.488281 21.867188 18 23 18 24.25 C 18 26.875 20.125 29 22.75 29 L 23.285156 29 C 22.632812 29.355469 22.164062 29.988281 22.039062 30.75 C 21.179688 30.863281 20.050781 30.839844 19.527344 30.050781 C 18.621094 28.695312 18.167969 28.695312 17.714844 28.695312 C 17.261719 28.695312 17.261719 29.148438 17.714844 29.597656 C 18.167969 30.050781 18.167969 30.050781 18.621094 30.957031 C 19.007812 31.730469 20.027344 32.605469 22 32.289062 L 22 34.050781 C 22 34.273438 22.039062 34.484375 22.097656 34.691406 C 23.308594 34.980469 25.347656 35.222656 27.929688 34.617188 C 27.972656 34.433594 28 34.246094 28 34.050781 L 28 31.144531 C 28 30.214844 27.476562 29.414062 26.714844 29 L 27.25 29 C 29.875 29 32 26.875 32 24.25 C 32 23.011719 31.523438 21.890625 30.746094 21.042969 Z M 30.746094 21.042969 "/>
<path style=" stroke:none;fill-rule:nonzero;fill:rgb(27.843139%,16.862746%,16.078432%);fill-opacity:1;" d="M 24.765625 35.242188 C 23.652344 35.242188 22.726562 35.097656 22.039062 34.933594 C 21.949219 34.914062 21.878906 34.84375 21.855469 34.757812 C 21.78125 34.496094 21.75 34.273438 21.75 34.050781 L 21.75 32.574219 C 19.46875 32.832031 18.609375 31.496094 18.398438 31.070312 C 17.960938 30.199219 17.960938 30.199219 17.539062 29.777344 C 17.1875 29.425781 17.046875 29.046875 17.164062 28.765625 C 17.25 28.558594 17.449219 28.445312 17.714844 28.445312 C 18.324219 28.445312 18.824219 28.550781 19.734375 29.914062 C 20.152344 30.542969 21.070312 30.601562 21.828125 30.523438 C 21.945312 30.03125 22.191406 29.59375 22.542969 29.246094 C 19.882812 29.136719 17.75 26.9375 17.75 24.25 C 17.75 23.027344 18.195312 21.859375 19.007812 20.945312 C 18.851562 20.082031 18.953125 19.0625 19.289062 18.054688 C 19.324219 17.953125 19.417969 17.886719 19.527344 17.886719 C 21.203125 17.886719 22.492188 18.964844 22.800781 19.25 L 27.226562 19.25 C 27.539062 18.964844 28.824219 17.886719 30.503906 17.886719 C 30.613281 17.886719 30.707031 17.953125 30.742188 18.054688 C 31.082031 19.074219 31.175781 20.105469 31.015625 20.972656 C 31.8125 21.882812 32.25 23.042969 32.25 24.25 C 32.25 26.9375 30.117188 29.136719 27.457031 29.246094 C 27.957031 29.746094 28.25 30.421875 28.25 31.144531 L 28.25 34.050781 C 28.25 34.246094 28.222656 34.449219 28.171875 34.675781 C 28.148438 34.765625 28.078125 34.839844 27.984375 34.859375 C 26.789062 35.140625 25.710938 35.242188 24.765625 35.242188 Z M 22.300781 34.484375 C 23.507812 34.75 25.378906 34.933594 27.714844 34.410156 C 27.738281 34.28125 27.75 34.164062 27.75 34.050781 L 27.75 31.144531 C 27.75 30.34375 27.308594 29.609375 26.59375 29.21875 C 26.492188 29.164062 26.441406 29.050781 26.472656 28.9375 C 26.5 28.828125 26.597656 28.75 26.714844 28.75 L 27.25 28.75 C 29.730469 28.75 31.75 26.730469 31.75 24.25 C 31.75 23.125 31.328125 22.046875 30.5625 21.214844 C 30.507812 21.152344 30.488281 21.070312 30.503906 20.992188 C 30.667969 20.234375 30.605469 19.316406 30.324219 18.390625 C 28.886719 18.464844 27.773438 19.425781 27.550781 19.632812 C 27.507812 19.707031 27.429688 19.753906 27.339844 19.753906 C 27.335938 19.753906 27.289062 19.753906 27.285156 19.753906 L 22.75 19.75 C 22.675781 19.75 22.585938 19.714844 22.527344 19.660156 L 22.519531 19.671875 C 22.507812 19.65625 21.300781 18.476562 19.707031 18.390625 C 19.429688 19.304688 19.363281 20.214844 19.519531 20.964844 C 19.539062 21.046875 19.515625 21.128906 19.457031 21.1875 C 18.679688 22.027344 18.25 23.113281 18.25 24.25 C 18.25 26.730469 20.269531 28.75 22.75 28.75 L 23.285156 28.75 C 23.402344 28.75 23.5 28.828125 23.527344 28.9375 C 23.558594 29.050781 23.507812 29.164062 23.40625 29.21875 C 22.804688 29.546875 22.394531 30.121094 22.285156 30.789062 C 22.269531 30.898438 22.183594 30.984375 22.074219 30.996094 C 20.742188 31.175781 19.789062 30.898438 19.316406 30.191406 C 18.484375 28.945312 18.113281 28.945312 17.714844 28.945312 C 17.644531 28.945312 17.625 28.960938 17.625 28.960938 C 17.613281 28.992188 17.644531 29.179688 17.890625 29.421875 C 18.371094 29.90625 18.390625 29.941406 18.84375 30.847656 C 19.027344 31.214844 19.800781 32.394531 21.960938 32.042969 C 22.035156 32.03125 22.105469 32.050781 22.160156 32.097656 C 22.21875 32.148438 22.25 32.214844 22.25 32.289062 L 22.25 34.050781 C 22.25 34.1875 22.265625 34.324219 22.300781 34.484375 Z M 22.300781 34.484375 "/>
<path style=" stroke:none;fill-rule:nonzero;fill:rgb(20.392157%,59.607846%,85.882354%);fill-opacity:1;" d="M 30.21875 25.679688 C 29.769531 26.679688 28.78125 27.507812 27.042969 27.644531 "/>
<path style=" stroke:none;fill-rule:nonzero;fill:rgb(27.843139%,16.862746%,16.078432%);fill-opacity:1;" d="M 27.042969 27.769531 C 26.976562 27.769531 26.921875 27.722656 26.917969 27.65625 C 26.910156 27.585938 26.960938 27.527344 27.03125 27.523438 C 28.933594 27.367188 29.753906 26.40625 30.105469 25.628906 C 30.132812 25.566406 30.207031 25.539062 30.269531 25.566406 C 30.332031 25.59375 30.359375 25.667969 30.332031 25.730469 C 29.796875 26.921875 28.632812 27.644531 27.050781 27.769531 C 27.046875 27.769531 27.046875 27.769531 27.042969 27.769531 Z M 27.042969 27.769531 "/>
<path style=" stroke:none;fill-rule:nonzero;fill:rgb(20.392157%,59.607846%,85.882354%);fill-opacity:1;" d="M 30.480469 23.703125 C 30.535156 24.082031 30.535156 24.480469 30.464844 24.875 "/>
<path style=" stroke:none;fill-rule:nonzero;fill:rgb(27.843139%,16.862746%,16.078432%);fill-opacity:1;" d="M 30.464844 25 C 30.457031 25 30.449219 25 30.441406 25 C 30.375 24.988281 30.328125 24.921875 30.339844 24.855469 C 30.40625 24.488281 30.410156 24.097656 30.355469 23.722656 C 30.34375 23.65625 30.394531 23.589844 30.460938 23.582031 C 30.53125 23.570312 30.59375 23.617188 30.601562 23.6875 C 30.664062 24.089844 30.65625 24.5 30.585938 24.898438 C 30.578125 24.957031 30.523438 25 30.464844 25 Z M 30.464844 25 "/>
<path style=" stroke:none;fill-rule:nonzero;fill:rgb(20.392157%,59.607846%,85.882354%);fill-opacity:1;" d="M 29.542969 21.9375 C 29.859375 22.164062 30.113281 22.527344 30.285156 22.964844 "/>
<path style=" stroke:none;fill-rule:nonzero;fill:rgb(27.843139%,16.862746%,16.078432%);fill-opacity:1;" d="M 30.285156 23.089844 C 30.234375 23.089844 30.1875 23.058594 30.167969 23.011719 C 30.003906 22.582031 29.761719 22.246094 29.46875 22.039062 C 29.414062 22 29.398438 21.921875 29.441406 21.867188 C 29.480469 21.808594 29.558594 21.796875 29.613281 21.835938 C 29.945312 22.070312 30.21875 22.445312 30.402344 22.921875 C 30.425781 22.984375 30.394531 23.054688 30.332031 23.082031 C 30.316406 23.085938 30.300781 23.089844 30.285156 23.089844 Z M 30.285156 23.089844 "/>
<path style=" stroke:none;fill-rule:nonzero;fill:rgb(99.215686%,98.823529%,93.725491%);fill-opacity:1;" d="M 46.84375 39.34375 C 46.84375 43.484375 43.484375 46.84375 39.34375 46.84375 C 35.199219 46.84375 31.84375 43.484375 31.84375 39.34375 C 31.84375 35.199219 35.199219 31.84375 39.34375 31.84375 C 43.484375 31.84375 46.84375 35.199219 46.84375 39.34375 Z M 46.84375 39.34375 "/>
<path style=" stroke:none;fill-rule:nonzero;fill:rgb(27.843139%,16.862746%,16.078432%);fill-opacity:1;" d="M 39.34375 32.292969 C 43.230469 32.292969 46.394531 35.457031 46.394531 39.34375 C 46.394531 43.230469 43.230469 46.394531 39.34375 46.394531 C 35.457031 46.394531 32.292969 43.230469 32.292969 39.34375 C 32.292969 35.457031 35.457031 32.292969 39.34375 32.292969 M 39.34375 31.59375 C 35.0625 31.59375 31.59375 35.0625 31.59375 39.34375 C 31.59375 43.621094 35.0625 47.09375 39.34375 47.09375 C 43.621094 47.09375 47.09375 43.621094 47.09375 39.34375 C 47.09375 35.0625 43.621094 31.59375 39.34375 31.59375 Z M 39.34375 31.59375 "/>
<path style=" stroke:none;fill-rule:nonzero;fill:rgb(47.058824%,62.7451%,81.176472%);fill-opacity:1;" d="M 45.46875 39.34375 C 45.46875 42.726562 42.726562 45.46875 39.34375 45.46875 C 35.960938 45.46875 33.21875 42.726562 33.21875 39.34375 C 33.21875 35.960938 35.960938 33.21875 39.34375 33.21875 C 42.726562 33.21875 45.46875 35.960938 45.46875 39.34375 Z M 45.46875 39.34375 "/>
<path style=" stroke:none;fill-rule:nonzero;fill:rgb(62.7451%,76.862746%,91.37255%);fill-opacity:1;" d="M 39.34375 33.21875 C 35.964844 33.21875 33.21875 35.964844 33.21875 39.34375 C 33.21875 39.417969 33.226562 39.492188 33.230469 39.570312 C 33.816406 36.730469 36.328125 34.59375 39.34375 34.59375 C 42.359375 34.59375 44.867188 36.730469 45.457031 39.570312 C 45.460938 39.496094 45.46875 39.421875 45.46875 39.34375 C 45.46875 35.964844 42.71875 33.21875 39.34375 33.21875 Z M 39.34375 33.21875 "/>
<path style=" stroke:none;fill-rule:nonzero;fill:rgb(27.843139%,16.862746%,16.078432%);fill-opacity:1;" d="M 39.34375 33.34375 C 42.652344 33.34375 45.34375 36.035156 45.34375 39.34375 C 45.34375 42.652344 42.652344 45.34375 39.34375 45.34375 C 36.035156 45.34375 33.34375 42.652344 33.34375 39.34375 C 33.34375 36.035156 36.035156 33.34375 39.34375 33.34375 M 39.34375 33.09375 C 35.898438 33.09375 33.09375 35.898438 33.09375 39.34375 C 33.09375 42.789062 35.898438 45.59375 39.34375 45.59375 C 42.789062 45.59375 45.59375 42.789062 45.59375 39.34375 C 45.59375 35.898438 42.789062 33.09375 39.34375 33.09375 Z M 39.34375 33.09375 "/>
<path style=" stroke:none;fill-rule:nonzero;fill:rgb(27.843139%,16.862746%,16.078432%);fill-opacity:1;" d="M 42.179688 36.503906 C 41.648438 35.972656 40.722656 35.972656 40.191406 36.503906 L 39.503906 37.191406 C 39.238281 37.457031 39.09375 37.8125 39.09375 38.1875 C 39.09375 38.476562 39.183594 38.753906 39.34375 38.988281 L 38.984375 39.347656 C 38.445312 38.984375 37.664062 39.035156 37.191406 39.503906 L 36.503906 40.191406 C 36.238281 40.457031 36.09375 40.8125 36.09375 41.1875 C 36.09375 41.5625 36.238281 41.914062 36.503906 42.179688 C 36.769531 42.445312 37.125 42.59375 37.5 42.59375 C 37.875 42.59375 38.230469 42.445312 38.492188 42.179688 L 39.179688 41.492188 C 39.445312 41.230469 39.59375 40.875 39.59375 40.5 C 39.59375 40.210938 39.503906 39.933594 39.339844 39.699219 L 39.699219 39.339844 C 39.933594 39.503906 40.210938 39.59375 40.5 39.59375 C 40.875 39.59375 41.230469 39.445312 41.492188 39.179688 L 42.179688 38.492188 C 42.445312 38.230469 42.59375 37.875 42.59375 37.5 C 42.59375 37.125 42.445312 36.769531 42.179688 36.503906 Z M 39.09375 40.5 C 39.09375 40.742188 39 40.96875 38.828125 41.140625 L 38.140625 41.828125 C 37.796875 42.171875 37.203125 42.171875 36.859375 41.828125 C 36.6875 41.65625 36.59375 41.429688 36.59375 41.1875 C 36.59375 40.945312 36.6875 40.71875 36.859375 40.546875 L 37.546875 39.859375 C 37.71875 39.6875 37.945312 39.59375 38.1875 39.59375 C 38.34375 39.59375 38.488281 39.636719 38.621094 39.710938 L 38.265625 40.066406 C 38.167969 40.164062 38.167969 40.320312 38.265625 40.417969 C 38.316406 40.46875 38.378906 40.492188 38.445312 40.492188 C 38.507812 40.492188 38.570312 40.46875 38.621094 40.417969 L 38.976562 40.0625 C 39.050781 40.195312 39.09375 40.34375 39.09375 40.5 Z M 41.828125 38.140625 L 41.140625 38.828125 C 40.859375 39.109375 40.40625 39.15625 40.066406 38.972656 L 40.417969 38.621094 C 40.515625 38.523438 40.515625 38.363281 40.417969 38.265625 C 40.320312 38.167969 40.164062 38.167969 40.066406 38.265625 L 39.710938 38.621094 C 39.636719 38.488281 39.59375 38.34375 39.59375 38.1875 C 39.59375 37.945312 39.6875 37.71875 39.859375 37.546875 L 40.546875 36.859375 C 40.71875 36.6875 40.945312 36.59375 41.1875 36.59375 C 41.429688 36.59375 41.65625 36.6875 41.828125 36.859375 C 42 37.03125 42.09375 37.257812 42.09375 37.5 C 42.09375 37.742188 42 37.96875 41.828125 38.140625 Z M 41.828125 38.140625 "/>
</g>
</svg>
