<?xml version="1.0" encoding="UTF-8"?>
<svg xmlns="http://www.w3.org/2000/svg" xmlns:xlink="http://www.w3.org/1999/xlink" viewBox="0 0 200 200" width="200px" height="200px">
<g id="surface14833105">
<path style=" stroke:none;fill-rule:nonzero;fill:rgb(94.509804%,76.862746%,5.882353%);fill-opacity:1;" d="M 154 24 C 152.894531 24 152 24.894531 152 26 C 152 27.105469 152.894531 28 154 28 C 155.105469 28 156 27.105469 156 26 C 156 24.894531 155.105469 24 154 24 Z M 154 24 "/>
<path style=" stroke:none;fill-rule:nonzero;fill:rgb(94.509804%,76.862746%,5.882353%);fill-opacity:1;" d="M 100 26 C 59.132812 26 26 59.132812 26 100 C 26 140.867188 59.132812 174 100 174 C 140.867188 174 174 140.867188 174 100 C 174 59.132812 140.867188 26 100 26 Z M 100 26 "/>
<path style=" stroke:none;fill-rule:nonzero;fill:rgb(94.509804%,76.862746%,5.882353%);fill-opacity:1;" d="M 166 22 C 161.582031 22 158 25.582031 158 30 C 158 34.417969 161.582031 38 166 38 C 170.417969 38 174 34.417969 174 30 C 174 25.582031 170.417969 22 166 22 Z M 166 22 "/>
<path style=" stroke:none;fill-rule:nonzero;fill:rgb(94.509804%,76.862746%,5.882353%);fill-opacity:1;" d="M 174 44 C 171.789062 44 170 45.789062 170 48 C 170 50.210938 171.789062 52 174 52 C 176.210938 52 178 50.210938 178 48 C 178 45.789062 176.210938 44 174 44 Z M 174 44 "/>
<path style=" stroke:none;fill-rule:nonzero;fill:rgb(98.431373%,80.392158%,34.901962%);fill-opacity:1;" d="M 162 148 C 159.789062 148 158 149.789062 158 152 C 158 154.210938 159.789062 156 162 156 C 164.210938 156 166 154.210938 166 152 C 166 149.789062 164.210938 148 162 148 Z M 30 118 C 25.582031 118 22 121.582031 22 126 C 22 130.417969 25.582031 134 30 134 C 34.417969 134 38 130.417969 38 126 C 38 121.582031 34.417969 118 30 118 Z M 30 118 "/>
<path style=" stroke:none;fill-rule:nonzero;fill:rgb(94.509804%,76.862746%,5.882353%);fill-opacity:1;" d="M 50 170 C 47.789062 170 46 171.789062 46 174 C 46 176.210938 47.789062 178 50 178 C 52.210938 178 54 176.210938 54 174 C 54 171.789062 52.210938 170 50 170 Z M 50 170 "/>
<path style=" stroke:none;fill-rule:nonzero;fill:rgb(100%,100%,100%);fill-opacity:1;" d="M 37 98 C 34.238281 98 32 100.238281 32 103 C 32 105.761719 34.238281 108 37 108 C 39.761719 108 42 105.761719 42 103 C 42 100.238281 39.761719 98 37 98 Z M 159 64 C 157.34375 64 156 65.34375 156 67 C 156 68.65625 157.34375 70 159 70 C 160.65625 70 162 68.65625 162 67 C 162 65.34375 160.65625 64 159 64 Z M 159 64 "/>
<path style=" stroke:none;fill-rule:nonzero;fill:rgb(20.392157%,59.607846%,85.882354%);fill-opacity:1;" d="M 100 51.25 C 73.214844 51.25 51.5 72.964844 51.5 99.75 C 51.5 126.535156 73.214844 148.25 100 148.25 C 126.785156 148.25 148.5 126.535156 148.5 99.75 C 148.5 72.964844 126.785156 51.25 100 51.25 Z M 100 51.25 "/>
<path style=" stroke:none;fill-rule:nonzero;fill:rgb(27.843139%,16.862746%,16.078432%);fill-opacity:1;" d="M 100 149.648438 C 72.484375 149.648438 50.101562 127.265625 50.101562 99.75 C 50.101562 72.234375 72.484375 49.851562 100 49.851562 C 127.515625 49.851562 149.898438 72.234375 149.898438 99.75 C 149.898438 127.265625 127.515625 149.648438 100 149.648438 Z M 100 52.648438 C 74.03125 52.648438 52.898438 73.777344 52.898438 99.75 C 52.898438 125.722656 74.03125 146.851562 100 146.851562 C 125.96875 146.851562 147.101562 125.722656 147.101562 99.75 C 147.101562 73.777344 125.96875 52.648438 100 52.648438 Z M 100 52.648438 "/>
<path style=" stroke:none;fill-rule:nonzero;fill:rgb(94.509804%,76.862746%,5.882353%);fill-opacity:1;" d="M 100 58.335938 C 77.355469 58.335938 59 76.691406 59 99.335938 C 59 121.976562 77.355469 140.335938 100 140.335938 C 122.644531 140.335938 141 121.976562 141 99.335938 C 141 76.691406 122.644531 58.335938 100 58.335938 Z M 100 58.335938 "/>
<path style=" stroke:none;fill-rule:nonzero;fill:rgb(27.843139%,16.862746%,16.078432%);fill-opacity:1;" d="M 138.847656 89.25 C 138.421875 89.25 138.023438 88.972656 137.890625 88.542969 C 137.714844 87.96875 137.527344 87.398438 137.324219 86.835938 C 136.539062 84.648438 135.550781 82.519531 134.382812 80.496094 C 134.105469 80.023438 134.269531 79.40625 134.746094 79.132812 C 135.226562 78.851562 135.839844 79.019531 136.113281 79.496094 C 137.34375 81.621094 138.382812 83.863281 139.207031 86.160156 C 139.417969 86.753906 139.617188 87.351562 139.800781 87.953125 C 139.964844 88.480469 139.667969 89.042969 139.136719 89.203125 C 139.042969 89.234375 138.945312 89.25 138.847656 89.25 Z M 138.847656 89.25 "/>
<path style=" stroke:none;fill-rule:nonzero;fill:rgb(27.843139%,16.862746%,16.078432%);fill-opacity:1;" d="M 100 141.5 C 76.976562 141.5 58.25 122.824219 58.25 99.875 C 58.25 76.921875 76.976562 58.25 100 58.25 C 111.949219 58.25 123.347656 63.371094 131.273438 72.296875 C 131.871094 72.96875 132.449219 73.664062 133.003906 74.378906 C 133.339844 74.8125 133.261719 75.441406 132.828125 75.78125 C 132.390625 76.121094 131.765625 76.042969 131.425781 75.605469 C 130.894531 74.925781 130.34375 74.265625 129.777344 73.625 C 122.230469 65.125 111.378906 60.246094 100 60.246094 C 78.082031 60.246094 60.25 78.023438 60.25 99.875 C 60.25 121.722656 78.082031 139.5 100 139.5 C 121.917969 139.5 139.75 121.722656 139.75 99.875 C 139.75 97.882812 139.601562 95.882812 139.304688 93.929688 C 139.222656 93.382812 139.601562 92.875 140.144531 92.792969 C 140.703125 92.703125 141.203125 93.085938 141.285156 93.632812 C 141.59375 95.683594 141.75 97.785156 141.75 99.875 C 141.75 122.824219 123.023438 141.5 100 141.5 Z M 100 141.5 "/>
<path style=" stroke:none;fill-rule:nonzero;fill:rgb(20.392157%,59.607846%,85.882354%);fill-opacity:1;" d="M 122.992188 84.175781 C 123.722656 80.835938 123.402344 76.691406 122.019531 72.539062 C 114.777344 72.539062 109.34375 77.972656 109.34375 77.972656 C 109.34375 77.972656 109.375 78.007812 109.382812 78.019531 C 109.253906 78.015625 109.128906 78 109 78 L 91 78 C 90.914062 78 90.828125 78.011719 90.742188 78.011719 C 90.75 78.003906 90.777344 77.972656 90.777344 77.972656 C 90.777344 77.972656 85.34375 72.539062 78.101562 72.539062 C 76.730469 76.644531 76.398438 80.746094 77.101562 84.074219 C 73.945312 87.464844 72 92 72 97 C 72 107.492188 80.507812 116 91 116 L 93.144531 116 C 90.539062 117.417969 88.652344 119.957031 88.160156 122.996094 C 84.71875 123.460938 80.203125 123.355469 78.105469 120.207031 C 74.480469 114.773438 72.671875 114.773438 70.859375 114.773438 C 69.050781 114.773438 69.046875 116.585938 70.859375 118.394531 C 72.671875 120.207031 72.671875 120.207031 74.480469 123.828125 C 76.027344 126.914062 80.105469 130.425781 88.003906 129.15625 L 88.003906 136.203125 C 88.003906 137.097656 88.160156 137.945312 88.382812 138.765625 C 93.234375 139.921875 101.386719 140.886719 111.714844 138.464844 C 111.886719 137.734375 112 136.984375 112 136.203125 L 112 124.570312 C 112 120.855469 109.90625 117.660156 106.855469 116 L 109 116 C 119.492188 116 128 107.492188 128 97 C 128 92.050781 126.09375 87.558594 122.992188 84.175781 Z M 122.992188 84.175781 "/>
<path style=" stroke:none;fill-rule:nonzero;fill:rgb(27.843139%,16.862746%,16.078432%);fill-opacity:1;" d="M 99.0625 140.972656 C 94.605469 140.972656 90.914062 140.398438 88.148438 139.738281 C 87.792969 139.65625 87.511719 139.382812 87.414062 139.03125 C 87.132812 137.984375 87 137.085938 87 136.203125 L 87 130.300781 C 77.875 131.328125 74.441406 125.992188 73.585938 124.277344 C 71.847656 120.800781 71.847656 120.800781 70.152344 119.105469 C 68.75 117.703125 68.195312 116.1875 68.660156 115.058594 C 69 114.242188 69.800781 113.773438 70.859375 113.773438 C 73.292969 113.773438 75.296875 114.195312 78.933594 119.652344 C 80.613281 122.167969 84.285156 122.410156 87.320312 122.089844 C 87.78125 120.132812 88.769531 118.378906 90.164062 116.980469 C 79.523438 116.542969 71 107.75 71 97 C 71 92.117188 72.78125 87.441406 76.027344 83.773438 C 75.414062 80.328125 75.808594 76.253906 77.152344 72.222656 C 77.289062 71.816406 77.671875 71.539062 78.101562 71.539062 C 84.816406 71.539062 89.964844 75.859375 91.207031 77 L 108.914062 77 C 110.15625 75.859375 115.304688 71.539062 122.019531 71.539062 C 122.449219 71.539062 122.828125 71.816406 122.964844 72.222656 C 124.324219 76.296875 124.710938 80.414062 124.066406 83.882812 C 127.25 87.535156 128.996094 92.175781 128.996094 97.003906 C 128.996094 107.753906 120.472656 116.546875 109.828125 116.984375 C 111.828125 118.976562 112.996094 121.691406 112.996094 124.570312 L 112.996094 136.203125 C 112.996094 136.988281 112.894531 137.804688 112.683594 138.695312 C 112.597656 139.066406 112.304688 139.351562 111.9375 139.4375 C 107.164062 140.558594 102.839844 140.972656 99.0625 140.972656 Z M 89.203125 137.929688 C 94.027344 139.003906 101.511719 139.730469 110.863281 137.632812 C 110.953125 137.128906 111 136.65625 111 136.203125 L 111 124.570312 C 111 121.378906 109.226562 118.433594 106.375 116.878906 C 105.972656 116.660156 105.773438 116.199219 105.882812 115.753906 C 105.996094 115.308594 106.394531 115 106.851562 115 L 109 115 C 118.925781 115 127 106.925781 127 97 C 127 92.507812 125.3125 88.191406 122.253906 84.851562 C 122.035156 84.613281 121.945312 84.28125 122.015625 83.964844 C 122.675781 80.929688 122.417969 77.261719 121.292969 73.558594 C 115.554688 73.867188 111.097656 77.707031 110.210938 78.527344 C 110.027344 78.828125 109.71875 79.019531 109.351562 79.019531 C 109.339844 79.019531 109.160156 79.007812 109.144531 79.007812 L 91 79 C 90.695312 79 90.335938 78.867188 90.117188 78.636719 L 90.074219 78.679688 C 90.023438 78.632812 85.199219 73.898438 78.828125 73.558594 C 77.714844 77.21875 77.449219 80.855469 78.082031 83.867188 C 78.148438 84.183594 78.054688 84.515625 77.835938 84.753906 C 74.714844 88.105469 73 92.453125 73 97 C 73 106.925781 81.074219 115 91 115 L 93.144531 115 C 93.605469 115 94.003906 115.308594 94.113281 115.753906 C 94.226562 116.199219 94.027344 116.660156 93.621094 116.878906 C 91.210938 118.1875 89.578125 120.476562 89.144531 123.15625 C 89.074219 123.59375 88.730469 123.929688 88.292969 123.988281 C 82.964844 124.703125 79.15625 123.59375 77.269531 120.765625 C 73.945312 115.777344 72.445312 115.777344 70.859375 115.777344 C 70.585938 115.777344 70.496094 115.84375 70.496094 115.84375 C 70.445312 115.96875 70.582031 116.710938 71.5625 117.695312 C 73.488281 119.621094 73.558594 119.761719 75.375 123.386719 C 76.113281 124.859375 79.195312 129.574219 87.839844 128.171875 C 88.132812 128.128906 88.425781 128.210938 88.648438 128.398438 C 88.871094 128.589844 89 128.867188 89 129.160156 L 89 136.207031 C 89 136.742188 89.066406 137.300781 89.203125 137.929688 Z M 89.203125 137.929688 "/>
<path style=" stroke:none;fill-rule:nonzero;fill:rgb(20.392157%,59.607846%,85.882354%);fill-opacity:1;" d="M 120.875 102.722656 C 119.074219 106.710938 115.121094 110.027344 108.164062 110.585938 "/>
<path style=" stroke:none;fill-rule:nonzero;fill:rgb(27.843139%,16.862746%,16.078432%);fill-opacity:1;" d="M 108.164062 111.085938 C 107.90625 111.085938 107.691406 110.882812 107.667969 110.625 C 107.644531 110.347656 107.851562 110.109375 108.125 110.085938 C 115.734375 109.476562 119.011719 105.632812 120.417969 102.519531 C 120.535156 102.265625 120.828125 102.152344 121.078125 102.269531 C 121.328125 102.382812 121.445312 102.675781 121.328125 102.929688 C 119.183594 107.683594 114.523438 110.574219 108.207031 111.082031 C 108.195312 111.085938 108.179688 111.085938 108.164062 111.085938 Z M 108.164062 111.085938 "/>
<path style=" stroke:none;fill-rule:nonzero;fill:rgb(20.392157%,59.607846%,85.882354%);fill-opacity:1;" d="M 121.917969 94.820312 C 122.140625 96.324219 122.136719 97.925781 121.859375 99.503906 "/>
<path style=" stroke:none;fill-rule:nonzero;fill:rgb(27.843139%,16.862746%,16.078432%);fill-opacity:1;" d="M 121.859375 100.003906 C 121.828125 100.003906 121.800781 100.003906 121.773438 99.996094 C 121.5 99.949219 121.316406 99.691406 121.367188 99.417969 C 121.625 97.949219 121.644531 96.382812 121.425781 94.890625 C 121.382812 94.621094 121.570312 94.363281 121.84375 94.324219 C 122.117188 94.285156 122.371094 94.472656 122.410156 94.746094 C 122.652344 96.367188 122.628906 97.996094 122.351562 99.589844 C 122.308594 99.835938 122.097656 100.003906 121.859375 100.003906 Z M 121.859375 100.003906 "/>
<path style=" stroke:none;fill-rule:nonzero;fill:rgb(20.392157%,59.607846%,85.882354%);fill-opacity:1;" d="M 118.164062 87.75 C 119.433594 88.652344 120.457031 90.109375 121.140625 91.859375 "/>
<path style=" stroke:none;fill-rule:nonzero;fill:rgb(27.843139%,16.862746%,16.078432%);fill-opacity:1;" d="M 121.140625 92.363281 C 120.941406 92.363281 120.753906 92.238281 120.675781 92.042969 C 120.007812 90.332031 119.039062 88.988281 117.875 88.160156 C 117.652344 88 117.597656 87.6875 117.757812 87.460938 C 117.921875 87.234375 118.230469 87.1875 118.457031 87.34375 C 119.78125 88.285156 120.871094 89.785156 121.609375 91.679688 C 121.707031 91.9375 121.578125 92.226562 121.324219 92.328125 C 121.265625 92.351562 121.203125 92.363281 121.140625 92.363281 Z M 121.140625 92.363281 "/>
<path style=" stroke:none;fill-rule:nonzero;fill:rgb(99.215686%,98.823529%,93.725491%);fill-opacity:1;" d="M 187.371094 157.371094 C 187.371094 173.941406 173.941406 187.371094 157.371094 187.371094 C 140.804688 187.371094 127.371094 173.941406 127.371094 157.371094 C 127.371094 140.804688 140.804688 127.371094 157.371094 127.371094 C 173.941406 127.371094 187.371094 140.804688 187.371094 157.371094 Z M 187.371094 157.371094 "/>
<path style=" stroke:none;fill-rule:nonzero;fill:rgb(27.843139%,16.862746%,16.078432%);fill-opacity:1;" d="M 157.371094 129.171875 C 172.921875 129.171875 185.570312 141.820312 185.570312 157.371094 C 185.570312 172.921875 172.921875 185.570312 157.371094 185.570312 C 141.820312 185.570312 129.171875 172.921875 129.171875 157.371094 C 129.171875 141.820312 141.820312 129.171875 157.371094 129.171875 M 157.371094 126.371094 C 140.253906 126.371094 126.371094 140.253906 126.371094 157.371094 C 126.371094 174.492188 140.253906 188.371094 157.371094 188.371094 C 174.492188 188.371094 188.371094 174.492188 188.371094 157.371094 C 188.371094 140.253906 174.492188 126.371094 157.371094 126.371094 Z M 157.371094 126.371094 "/>
<path style=" stroke:none;fill-rule:nonzero;fill:rgb(47.058824%,62.7451%,81.176472%);fill-opacity:1;" d="M 181.871094 157.371094 C 181.871094 170.902344 170.902344 181.871094 157.371094 181.871094 C 143.839844 181.871094 132.871094 170.902344 132.871094 157.371094 C 132.871094 143.839844 143.839844 132.871094 157.371094 132.871094 C 170.902344 132.871094 181.871094 143.839844 181.871094 157.371094 Z M 181.871094 157.371094 "/>
<path style=" stroke:none;fill-rule:nonzero;fill:rgb(62.7451%,76.862746%,91.37255%);fill-opacity:1;" d="M 157.371094 132.871094 C 143.863281 132.871094 132.871094 143.863281 132.871094 157.371094 C 132.871094 157.679688 132.90625 157.972656 132.917969 158.277344 C 135.273438 146.917969 145.3125 138.371094 157.371094 138.371094 C 169.433594 138.371094 179.476562 146.921875 181.824219 158.289062 C 181.839844 157.980469 181.871094 157.683594 181.871094 157.371094 C 181.871094 143.863281 170.878906 132.871094 157.371094 132.871094 Z M 157.371094 132.871094 "/>
<path style=" stroke:none;fill-rule:nonzero;fill:rgb(27.843139%,16.862746%,16.078432%);fill-opacity:1;" d="M 157.371094 133.371094 C 170.605469 133.371094 181.371094 144.136719 181.371094 157.371094 C 181.371094 170.605469 170.605469 181.371094 157.371094 181.371094 C 144.136719 181.371094 133.371094 170.605469 133.371094 157.371094 C 133.371094 144.136719 144.136719 133.371094 157.371094 133.371094 M 157.371094 132.371094 C 143.585938 132.371094 132.371094 143.589844 132.371094 157.371094 C 132.371094 171.15625 143.585938 182.371094 157.371094 182.371094 C 171.15625 182.371094 182.371094 171.15625 182.371094 157.371094 C 182.371094 143.589844 171.15625 132.371094 157.371094 132.371094 Z M 157.371094 132.371094 "/>
<path style=" stroke:none;fill-rule:nonzero;fill:rgb(27.843139%,16.862746%,16.078432%);fill-opacity:1;" d="M 168.722656 146.019531 C 166.597656 143.890625 162.890625 143.894531 160.769531 146.019531 L 158.019531 148.769531 C 156.957031 149.832031 156.371094 151.242188 156.371094 152.746094 C 156.371094 153.90625 156.730469 155.011719 157.382812 155.949219 L 155.941406 157.390625 C 153.773438 155.929688 150.652344 156.136719 148.765625 158.023438 L 146.019531 160.769531 C 144.957031 161.832031 144.371094 163.242188 144.371094 164.746094 C 144.371094 166.25 144.957031 167.660156 146.019531 168.722656 C 147.082031 169.789062 148.496094 170.371094 150 170.371094 C 151.5 170.371094 152.914062 169.789062 153.976562 168.722656 L 156.722656 165.976562 C 157.789062 164.914062 158.371094 163.5 158.371094 162 C 158.371094 160.835938 158.015625 159.730469 157.363281 158.796875 L 158.796875 157.363281 C 159.730469 158.015625 160.835938 158.371094 162 158.371094 C 163.5 158.371094 164.914062 157.789062 165.976562 156.722656 L 168.722656 153.976562 C 169.789062 152.914062 170.371094 151.5 170.371094 150 C 170.371094 148.496094 169.789062 147.082031 168.722656 146.019531 Z M 156.371094 162 C 156.371094 162.964844 155.996094 163.875 155.308594 164.5625 L 152.5625 167.308594 C 151.191406 168.683594 148.808594 168.683594 147.433594 167.308594 C 146.75 166.625 146.371094 165.714844 146.371094 164.746094 C 146.371094 163.777344 146.75 162.867188 147.433594 162.183594 L 150.183594 159.433594 C 150.867188 158.75 151.777344 158.371094 152.746094 158.371094 C 153.371094 158.371094 153.960938 158.542969 154.492188 158.839844 L 153.066406 160.265625 C 152.675781 160.652344 152.675781 161.289062 153.066406 161.679688 C 153.261719 161.875 153.519531 161.96875 153.773438 161.96875 C 154.03125 161.96875 154.285156 161.871094 154.480469 161.679688 L 155.90625 160.253906 C 156.199219 160.785156 156.371094 161.375 156.371094 162 Z M 167.308594 152.5625 L 164.5625 155.308594 C 163.4375 156.4375 161.632812 156.621094 160.261719 155.898438 L 161.679688 154.480469 C 162.066406 154.089844 162.066406 153.457031 161.679688 153.066406 C 161.289062 152.675781 160.652344 152.675781 160.265625 153.066406 L 158.839844 154.492188 C 158.542969 153.960938 158.371094 153.371094 158.371094 152.746094 C 158.371094 151.777344 158.75 150.867188 159.433594 150.183594 L 162.183594 147.433594 C 162.867188 146.75 163.777344 146.371094 164.746094 146.371094 C 165.714844 146.371094 166.625 146.75 167.308594 147.433594 C 167.996094 148.121094 168.371094 149.03125 168.371094 150 C 168.371094 150.964844 167.996094 151.875 167.308594 152.5625 Z M 167.308594 152.5625 "/>
</g>
</svg>
