<?xml version="1.0" encoding="UTF-8"?>
<svg xmlns="http://www.w3.org/2000/svg" xmlns:xlink="http://www.w3.org/1999/xlink" viewBox="0 0 100 100" width="100px" height="100px">
<g id="surface14833082">
<path style=" stroke:none;fill-rule:nonzero;fill:rgb(94.509804%,76.862746%,5.882353%);fill-opacity:1;" d="M 77 12 C 76.449219 12 76 12.449219 76 13 C 76 13.550781 76.449219 14 77 14 C 77.550781 14 78 13.550781 78 13 C 78 12.449219 77.550781 12 77 12 Z M 77 12 "/>
<path style=" stroke:none;fill-rule:nonzero;fill:rgb(94.509804%,76.862746%,5.882353%);fill-opacity:1;" d="M 50 13 C 29.566406 13 13 29.566406 13 50 C 13 70.433594 29.566406 87 50 87 C 70.433594 87 87 70.433594 87 50 C 87 29.566406 70.433594 13 50 13 Z M 50 13 "/>
<path style=" stroke:none;fill-rule:nonzero;fill:rgb(94.509804%,76.862746%,5.882353%);fill-opacity:1;" d="M 83 11 C 80.789062 11 79 12.789062 79 15 C 79 17.210938 80.789062 19 83 19 C 85.210938 19 87 17.210938 87 15 C 87 12.789062 85.210938 11 83 11 Z M 83 11 "/>
<path style=" stroke:none;fill-rule:nonzero;fill:rgb(94.509804%,76.862746%,5.882353%);fill-opacity:1;" d="M 87 22 C 85.894531 22 85 22.894531 85 24 C 85 25.105469 85.894531 26 87 26 C 88.105469 26 89 25.105469 89 24 C 89 22.894531 88.105469 22 87 22 Z M 87 22 "/>
<path style=" stroke:none;fill-rule:nonzero;fill:rgb(98.431373%,80.392158%,34.901962%);fill-opacity:1;" d="M 81 74 C 79.894531 74 79 74.894531 79 76 C 79 77.105469 79.894531 78 81 78 C 82.105469 78 83 77.105469 83 76 C 83 74.894531 82.105469 74 81 74 Z M 15 59 C 12.789062 59 11 60.789062 11 63 C 11 65.210938 12.789062 67 15 67 C 17.210938 67 19 65.210938 19 63 C 19 60.789062 17.210938 59 15 59 Z M 15 59 "/>
<path style=" stroke:none;fill-rule:nonzero;fill:rgb(94.509804%,76.862746%,5.882353%);fill-opacity:1;" d="M 25 85 C 23.894531 85 23 85.894531 23 87 C 23 88.105469 23.894531 89 25 89 C 26.105469 89 27 88.105469 27 87 C 27 85.894531 26.105469 85 25 85 Z M 25 85 "/>
<path style=" stroke:none;fill-rule:nonzero;fill:rgb(100%,100%,100%);fill-opacity:1;" d="M 18.5 49 C 17.121094 49 16 50.121094 16 51.5 C 16 52.878906 17.121094 54 18.5 54 C 19.878906 54 21 52.878906 21 51.5 C 21 50.121094 19.878906 49 18.5 49 Z M 79.5 32 C 78.671875 32 78 32.671875 78 33.5 C 78 34.328125 78.671875 35 79.5 35 C 80.328125 35 81 34.328125 81 33.5 C 81 32.671875 80.328125 32 79.5 32 Z M 79.5 32 "/>
<path style=" stroke:none;fill-rule:nonzero;fill:rgb(20.392157%,59.607846%,85.882354%);fill-opacity:1;" d="M 50 25.625 C 36.605469 25.625 25.75 36.480469 25.75 49.875 C 25.75 63.269531 36.605469 74.125 50 74.125 C 63.394531 74.125 74.25 63.269531 74.25 49.875 C 74.25 36.480469 63.394531 25.625 50 25.625 Z M 50 25.625 "/>
<path style=" stroke:none;fill-rule:nonzero;fill:rgb(27.843139%,16.862746%,16.078432%);fill-opacity:1;" d="M 50 74.824219 C 36.242188 74.824219 25.050781 63.632812 25.050781 49.875 C 25.050781 36.117188 36.242188 24.925781 50 24.925781 C 63.757812 24.925781 74.949219 36.117188 74.949219 49.875 C 74.949219 63.632812 63.757812 74.824219 50 74.824219 Z M 50 26.324219 C 37.015625 26.324219 26.449219 36.890625 26.449219 49.875 C 26.449219 62.859375 37.015625 73.425781 50 73.425781 C 62.984375 73.425781 73.550781 62.859375 73.550781 49.875 C 73.550781 36.890625 62.984375 26.324219 50 26.324219 Z M 50 26.324219 "/>
<path style=" stroke:none;fill-rule:nonzero;fill:rgb(94.509804%,76.862746%,5.882353%);fill-opacity:1;" d="M 50 29.167969 C 38.679688 29.167969 29.5 38.34375 29.5 49.667969 C 29.5 60.988281 38.679688 70.167969 50 70.167969 C 61.320312 70.167969 70.5 60.988281 70.5 49.667969 C 70.5 38.34375 61.320312 29.167969 50 29.167969 Z M 50 29.167969 "/>
<path style=" stroke:none;fill-rule:nonzero;fill:rgb(27.843139%,16.862746%,16.078432%);fill-opacity:1;" d="M 69.425781 44.625 C 69.210938 44.625 69.011719 44.484375 68.945312 44.269531 C 68.859375 43.984375 68.761719 43.699219 68.660156 43.417969 C 68.269531 42.324219 67.777344 41.257812 67.191406 40.25 C 67.054688 40.011719 67.136719 39.703125 67.375 39.566406 C 67.613281 39.425781 67.917969 39.507812 68.058594 39.75 C 68.671875 40.808594 69.191406 41.929688 69.601562 43.078125 C 69.710938 43.378906 69.808594 43.675781 69.902344 43.976562 C 69.980469 44.242188 69.835938 44.519531 69.570312 44.601562 C 69.519531 44.617188 69.472656 44.625 69.425781 44.625 Z M 69.425781 44.625 "/>
<path style=" stroke:none;fill-rule:nonzero;fill:rgb(27.843139%,16.862746%,16.078432%);fill-opacity:1;" d="M 50 70.75 C 38.488281 70.75 29.125 61.414062 29.125 49.9375 C 29.125 38.460938 38.488281 29.125 50 29.125 C 55.976562 29.125 61.675781 31.683594 65.636719 36.148438 C 65.933594 36.484375 66.222656 36.832031 66.5 37.1875 C 66.671875 37.40625 66.632812 37.71875 66.414062 37.890625 C 66.195312 38.0625 65.882812 38.019531 65.710938 37.800781 C 65.449219 37.464844 65.171875 37.132812 64.886719 36.8125 C 61.117188 32.5625 55.6875 30.125 50 30.125 C 39.039062 30.125 30.125 39.011719 30.125 49.9375 C 30.125 60.863281 39.039062 69.75 50 69.75 C 60.960938 69.75 69.875 60.863281 69.875 49.9375 C 69.875 48.941406 69.800781 47.941406 69.652344 46.964844 C 69.613281 46.691406 69.800781 46.4375 70.074219 46.394531 C 70.351562 46.351562 70.601562 46.542969 70.640625 46.816406 C 70.796875 47.839844 70.875 48.890625 70.875 49.9375 C 70.875 61.414062 61.511719 70.75 50 70.75 Z M 50 70.75 "/>
<path style=" stroke:none;fill-rule:nonzero;fill:rgb(20.392157%,59.607846%,85.882354%);fill-opacity:1;" d="M 61.496094 42.089844 C 61.859375 40.417969 61.703125 38.34375 61.011719 36.269531 C 57.386719 36.269531 54.671875 38.984375 54.671875 38.984375 C 54.671875 38.984375 54.6875 39.003906 54.691406 39.007812 C 54.628906 39.007812 54.566406 39 54.5 39 L 45.5 39 C 45.457031 39 45.414062 39.007812 45.371094 39.007812 C 45.375 39.003906 45.390625 38.984375 45.390625 38.984375 C 45.390625 38.984375 42.671875 36.269531 39.050781 36.269531 C 38.367188 38.324219 38.199219 40.375 38.550781 42.035156 C 36.972656 43.730469 36 46 36 48.5 C 36 53.746094 40.253906 58 45.5 58 L 46.574219 58 C 45.269531 58.710938 44.328125 59.980469 44.078125 61.496094 C 42.359375 61.730469 40.101562 61.679688 39.050781 60.105469 C 37.242188 57.386719 36.335938 57.386719 35.429688 57.386719 C 34.523438 57.386719 34.523438 58.292969 35.429688 59.199219 C 36.335938 60.105469 36.335938 60.105469 37.242188 61.914062 C 38.011719 63.457031 40.054688 65.214844 44 64.578125 L 44 68.101562 C 44 68.546875 44.078125 68.972656 44.191406 69.382812 C 46.617188 69.960938 50.695312 70.445312 55.855469 69.230469 C 55.941406 68.867188 56 68.492188 56 68.101562 L 56 62.285156 C 56 60.429688 54.953125 58.828125 53.425781 58 L 54.5 58 C 59.746094 58 64 53.746094 64 48.5 C 64 46.023438 63.046875 43.777344 61.496094 42.089844 Z M 61.496094 42.089844 "/>
<path style=" stroke:none;fill-rule:nonzero;fill:rgb(27.843139%,16.862746%,16.078432%);fill-opacity:1;" d="M 49.53125 70.484375 C 47.300781 70.484375 45.457031 70.199219 44.074219 69.871094 C 43.898438 69.828125 43.757812 69.691406 43.707031 69.515625 C 43.566406 68.992188 43.5 68.542969 43.5 68.101562 L 43.5 65.148438 C 38.9375 65.664062 37.222656 62.996094 36.792969 62.140625 C 35.921875 60.398438 35.921875 60.398438 35.074219 59.550781 C 34.375 58.851562 34.097656 58.09375 34.332031 57.527344 C 34.5 57.121094 34.898438 56.886719 35.429688 56.886719 C 36.644531 56.886719 37.648438 57.097656 39.46875 59.824219 C 40.304688 61.085938 42.144531 61.203125 43.660156 61.042969 C 43.890625 60.066406 44.382812 59.1875 45.082031 58.488281 C 39.761719 58.273438 35.5 53.875 35.5 48.5 C 35.5 46.058594 36.390625 43.71875 38.011719 41.886719 C 37.707031 40.164062 37.90625 38.125 38.578125 36.113281 C 38.644531 35.90625 38.835938 35.769531 39.050781 35.769531 C 42.40625 35.769531 44.980469 37.929688 45.601562 38.5 L 54.457031 38.5 C 55.078125 37.929688 57.652344 35.769531 61.007812 35.769531 C 61.222656 35.769531 61.414062 35.90625 61.484375 36.113281 C 62.160156 38.148438 62.355469 40.207031 62.035156 41.941406 C 63.625 43.769531 64.5 46.089844 64.5 48.5 C 64.5 53.875 60.234375 58.273438 54.914062 58.492188 C 55.914062 59.488281 56.5 60.847656 56.5 62.285156 L 56.5 68.101562 C 56.5 68.492188 56.445312 68.902344 56.339844 69.347656 C 56.296875 69.53125 56.152344 69.675781 55.96875 69.71875 C 53.582031 70.28125 51.417969 70.484375 49.53125 70.484375 Z M 44.601562 68.964844 C 47.015625 69.503906 50.753906 69.863281 55.433594 68.816406 C 55.476562 68.5625 55.5 68.328125 55.5 68.101562 L 55.5 62.285156 C 55.5 60.6875 54.613281 59.214844 53.1875 58.441406 C 52.988281 58.332031 52.886719 58.097656 52.941406 57.878906 C 52.996094 57.65625 53.199219 57.5 53.425781 57.5 L 54.5 57.5 C 59.460938 57.5 63.5 53.464844 63.5 48.5 C 63.5 46.253906 62.65625 44.097656 61.128906 42.425781 C 61.015625 42.304688 60.972656 42.140625 61.007812 41.980469 C 61.339844 40.464844 61.210938 38.628906 60.648438 36.78125 C 57.777344 36.933594 55.550781 38.855469 55.105469 39.265625 C 55.015625 39.414062 54.859375 39.511719 54.675781 39.511719 C 54.667969 39.511719 54.578125 39.503906 54.574219 39.503906 L 45.5 39.5 C 45.347656 39.5 45.167969 39.433594 45.058594 39.320312 L 45.035156 39.339844 C 45.011719 39.316406 42.597656 36.949219 39.414062 36.777344 C 38.855469 38.609375 38.722656 40.429688 39.039062 41.933594 C 39.074219 42.09375 39.027344 42.257812 38.917969 42.378906 C 37.359375 44.050781 36.5 46.226562 36.5 48.5 C 36.5 53.464844 40.539062 57.5 45.5 57.5 L 46.574219 57.5 C 46.800781 57.5 47 57.65625 47.058594 57.878906 C 47.113281 58.097656 47.011719 58.328125 46.8125 58.441406 C 45.605469 59.09375 44.789062 60.238281 44.574219 61.578125 C 44.535156 61.796875 44.363281 61.964844 44.144531 61.992188 C 41.480469 62.351562 39.578125 61.796875 38.636719 60.382812 C 36.972656 57.890625 36.222656 57.890625 35.429688 57.890625 C 35.292969 57.890625 35.25 57.921875 35.246094 57.921875 C 35.222656 57.984375 35.289062 58.355469 35.78125 58.847656 C 36.746094 59.808594 36.78125 59.878906 37.6875 61.695312 C 38.054688 62.429688 39.597656 64.785156 43.921875 64.085938 C 44.066406 64.066406 44.210938 64.105469 44.324219 64.199219 C 44.433594 64.296875 44.5 64.433594 44.5 64.578125 L 44.5 68.101562 C 44.5 68.371094 44.53125 68.652344 44.601562 68.964844 Z M 44.601562 68.964844 "/>
<path style=" stroke:none;fill-rule:nonzero;fill:rgb(20.392157%,59.607846%,85.882354%);fill-opacity:1;" d="M 60.4375 51.363281 C 59.535156 53.355469 57.5625 55.015625 54.082031 55.292969 "/>
<path style=" stroke:none;fill-rule:nonzero;fill:rgb(27.843139%,16.862746%,16.078432%);fill-opacity:1;" d="M 54.082031 55.542969 C 53.953125 55.542969 53.84375 55.441406 53.835938 55.3125 C 53.824219 55.175781 53.925781 55.054688 54.0625 55.042969 C 57.867188 54.738281 59.503906 52.816406 60.210938 51.257812 C 60.265625 51.132812 60.414062 51.074219 60.539062 51.132812 C 60.664062 51.191406 60.722656 51.339844 60.664062 51.464844 C 59.59375 53.839844 57.261719 55.289062 54.101562 55.539062 C 54.097656 55.542969 54.089844 55.542969 54.082031 55.542969 Z M 54.082031 55.542969 "/>
<path style=" stroke:none;fill-rule:nonzero;fill:rgb(20.392157%,59.607846%,85.882354%);fill-opacity:1;" d="M 60.960938 47.410156 C 61.070312 48.164062 61.066406 48.960938 60.929688 49.753906 "/>
<path style=" stroke:none;fill-rule:nonzero;fill:rgb(27.843139%,16.862746%,16.078432%);fill-opacity:1;" d="M 60.929688 50.003906 C 60.914062 50.003906 60.902344 50 60.886719 49.996094 C 60.75 49.976562 60.660156 49.84375 60.683594 49.710938 C 60.8125 48.976562 60.820312 48.191406 60.710938 47.445312 C 60.691406 47.308594 60.785156 47.183594 60.921875 47.164062 C 61.058594 47.144531 61.1875 47.234375 61.207031 47.375 C 61.324219 48.183594 61.316406 48.996094 61.175781 49.796875 C 61.15625 49.917969 61.050781 50.003906 60.929688 50.003906 Z M 60.929688 50.003906 "/>
<path style=" stroke:none;fill-rule:nonzero;fill:rgb(20.392157%,59.607846%,85.882354%);fill-opacity:1;" d="M 59.082031 43.875 C 59.714844 44.324219 60.230469 45.054688 60.570312 45.929688 "/>
<path style=" stroke:none;fill-rule:nonzero;fill:rgb(27.843139%,16.862746%,16.078432%);fill-opacity:1;" d="M 60.570312 46.179688 C 60.472656 46.179688 60.378906 46.121094 60.339844 46.023438 C 60.003906 45.164062 59.519531 44.492188 58.9375 44.078125 C 58.824219 44 58.800781 43.84375 58.878906 43.730469 C 58.960938 43.617188 59.113281 43.59375 59.226562 43.671875 C 59.890625 44.144531 60.433594 44.894531 60.804688 45.839844 C 60.855469 45.96875 60.789062 46.113281 60.660156 46.164062 C 60.632812 46.175781 60.601562 46.179688 60.570312 46.179688 Z M 60.570312 46.179688 "/>
<path style=" stroke:none;fill-rule:nonzero;fill:rgb(99.215686%,98.823529%,93.725491%);fill-opacity:1;" d="M 93.6875 78.6875 C 93.6875 86.96875 86.96875 93.6875 78.6875 93.6875 C 70.402344 93.6875 63.6875 86.96875 63.6875 78.6875 C 63.6875 70.402344 70.402344 63.6875 78.6875 63.6875 C 86.96875 63.6875 93.6875 70.402344 93.6875 78.6875 Z M 93.6875 78.6875 "/>
<path style=" stroke:none;fill-rule:nonzero;fill:rgb(27.843139%,16.862746%,16.078432%);fill-opacity:1;" d="M 78.6875 64.585938 C 86.460938 64.585938 92.785156 70.910156 92.785156 78.6875 C 92.785156 86.460938 86.460938 92.785156 78.6875 92.785156 C 70.910156 92.785156 64.585938 86.460938 64.585938 78.6875 C 64.585938 70.910156 70.910156 64.585938 78.6875 64.585938 M 78.6875 63.1875 C 70.125 63.1875 63.1875 70.125 63.1875 78.6875 C 63.1875 87.246094 70.125 94.1875 78.6875 94.1875 C 87.246094 94.1875 94.1875 87.246094 94.1875 78.6875 C 94.1875 70.125 87.246094 63.1875 78.6875 63.1875 Z M 78.6875 63.1875 "/>
<path style=" stroke:none;fill-rule:nonzero;fill:rgb(47.058824%,62.7451%,81.176472%);fill-opacity:1;" d="M 90.933594 78.6875 C 90.933594 85.453125 85.449219 90.9375 78.683594 90.9375 C 71.917969 90.9375 66.433594 85.453125 66.433594 78.6875 C 66.433594 71.921875 71.917969 66.4375 78.683594 66.4375 C 85.449219 66.4375 90.933594 71.921875 90.933594 78.6875 Z M 90.933594 78.6875 "/>
<path style=" stroke:none;fill-rule:nonzero;fill:rgb(62.7451%,76.862746%,91.37255%);fill-opacity:1;" d="M 78.6875 66.4375 C 71.929688 66.4375 66.4375 71.929688 66.4375 78.6875 C 66.4375 78.839844 66.453125 78.988281 66.460938 79.140625 C 67.636719 73.460938 72.65625 69.1875 78.6875 69.1875 C 84.71875 69.1875 89.738281 73.460938 90.914062 79.144531 C 90.917969 78.992188 90.9375 78.839844 90.9375 78.6875 C 90.9375 71.929688 85.441406 66.4375 78.6875 66.4375 Z M 78.6875 66.4375 "/>
<path style=" stroke:none;fill-rule:nonzero;fill:rgb(27.843139%,16.862746%,16.078432%);fill-opacity:1;" d="M 78.683594 66.6875 C 85.300781 66.6875 90.6875 72.070312 90.6875 78.6875 C 90.6875 85.304688 85.304688 90.6875 78.683594 90.6875 C 72.070312 90.6875 66.6875 85.304688 66.6875 78.6875 C 66.6875 72.070312 72.070312 66.6875 78.683594 66.6875 M 78.683594 66.1875 C 71.792969 66.1875 66.1875 71.792969 66.1875 78.6875 C 66.1875 85.578125 71.792969 91.1875 78.683594 91.1875 C 85.578125 91.1875 91.1875 85.578125 91.1875 78.6875 C 91.1875 71.792969 85.578125 66.1875 78.683594 66.1875 Z M 78.683594 66.1875 "/>
<path style=" stroke:none;fill-rule:nonzero;fill:rgb(27.843139%,16.862746%,16.078432%);fill-opacity:1;" d="M 84.363281 73.011719 C 83.300781 71.945312 81.445312 71.945312 80.382812 73.011719 L 79.011719 74.382812 C 78.476562 74.914062 78.1875 75.621094 78.1875 76.371094 C 78.1875 76.953125 78.363281 77.507812 78.691406 77.972656 L 77.96875 78.695312 C 76.886719 77.964844 75.324219 78.066406 74.382812 79.011719 L 73.007812 80.386719 C 72.476562 80.914062 72.1875 81.621094 72.1875 82.371094 C 72.1875 83.125 72.476562 83.832031 73.011719 84.363281 C 73.542969 84.894531 74.246094 85.1875 75 85.1875 C 75.75 85.1875 76.457031 84.894531 76.988281 84.363281 L 78.363281 82.988281 C 78.894531 82.457031 79.1875 81.75 79.1875 81 C 79.1875 80.417969 79.007812 79.867188 78.679688 79.398438 L 79.398438 78.679688 C 79.867188 79.007812 80.417969 79.1875 81 79.1875 C 81.75 79.1875 82.457031 78.894531 82.988281 78.363281 L 84.363281 76.988281 C 84.894531 76.457031 85.1875 75.75 85.1875 75 C 85.1875 74.246094 84.894531 73.542969 84.363281 73.011719 Z M 78.1875 81 C 78.1875 81.484375 77.996094 81.9375 77.65625 82.28125 L 76.28125 83.65625 C 75.597656 84.339844 74.402344 84.34375 73.71875 83.65625 C 73.375 83.3125 73.1875 82.855469 73.1875 82.371094 C 73.1875 81.890625 73.375 81.433594 73.71875 81.089844 L 75.089844 79.71875 C 75.433594 79.375 75.890625 79.1875 76.371094 79.1875 C 76.683594 79.1875 76.980469 79.273438 77.246094 79.417969 L 76.53125 80.132812 C 76.339844 80.328125 76.339844 80.644531 76.53125 80.839844 C 76.632812 80.9375 76.757812 80.984375 76.886719 80.984375 C 77.015625 80.984375 77.144531 80.9375 77.242188 80.839844 L 77.953125 80.125 C 78.101562 80.390625 78.1875 80.6875 78.1875 81 Z M 83.65625 76.28125 L 82.28125 77.65625 C 81.71875 78.21875 80.816406 78.3125 80.128906 77.949219 L 80.839844 77.238281 C 81.035156 77.046875 81.035156 76.726562 80.839844 76.53125 C 80.644531 76.339844 80.328125 76.339844 80.132812 76.53125 L 79.417969 77.246094 C 79.273438 76.980469 79.1875 76.683594 79.1875 76.371094 C 79.1875 75.890625 79.375 75.433594 79.71875 75.089844 L 81.089844 73.71875 C 81.433594 73.375 81.890625 73.1875 82.371094 73.1875 C 82.855469 73.1875 83.3125 73.375 83.65625 73.71875 C 83.996094 74.058594 84.1875 74.515625 84.1875 75 C 84.1875 75.484375 83.996094 75.9375 83.65625 76.28125 Z M 83.65625 76.28125 "/>
</g>
</svg>
